<?xml version="1.0" encoding="UTF-8" standalone="no"?><svg xmlns="http://www.w3.org/2000/svg" xmlns:xlink="http://www.w3.org/1999/xlink" contentStyleType="text/css" height="758px" preserveAspectRatio="none" style="width:996px;height:758px;background:#FFFFFF;" version="1.1" viewBox="0 0 996 758" width="996px" zoomAndPan="magnify"><defs/><g><line style="stroke:#181818;stroke-width:0.5;stroke-dasharray:5.0,5.0;" x1="35" x2="35" y1="42.1172" y2="717.8438"/><line style="stroke:#181818;stroke-width:0.5;stroke-dasharray:5.0,5.0;" x1="251.5" x2="251.5" y1="42.1172" y2="717.8438"/><line style="stroke:#181818;stroke-width:0.5;stroke-dasharray:5.0,5.0;" x1="531" x2="531" y1="42.1172" y2="717.8438"/><line style="stroke:#181818;stroke-width:0.5;stroke-dasharray:5.0,5.0;" x1="843.5" x2="843.5" y1="42.1172" y2="717.8438"/><line style="stroke:#181818;stroke-width:0.5;stroke-dasharray:5.0,5.0;" x1="939.5" x2="939.5" y1="42.1172" y2="717.8438"/><rect fill="#E2E2F0" height="36.1172" rx="2.5" ry="2.5" style="stroke:#181818;stroke-width:0.5;" width="61" x="5" y="5"/><text fill="#000000" font-family="sans-serif" font-size="19" lengthAdjust="spacing" textLength="47" x="12" y="29.6362">MNO</text><rect fill="#E2E2F0" height="36.1172" rx="2.5" ry="2.5" style="stroke:#181818;stroke-width:0.5;" width="61" x="5" y="716.8438"/><text fill="#000000" font-family="sans-serif" font-size="19" lengthAdjust="spacing" textLength="47" x="12" y="741.48">MNO</text><rect fill="#E2E2F0" height="36.1172" rx="2.5" ry="2.5" style="stroke:#181818;stroke-width:0.5;" width="92" x="205.5" y="5"/><text fill="#000000" font-family="sans-serif" font-size="19" lengthAdjust="spacing" textLength="78" x="212.5" y="29.6362">SM-DP+</text><rect fill="#E2E2F0" height="36.1172" rx="2.5" ry="2.5" style="stroke:#181818;stroke-width:0.5;" width="92" x="205.5" y="716.8438"/><text fill="#000000" font-family="sans-serif" font-size="19" lengthAdjust="spacing" textLength="78" x="212.5" y="741.48">SM-DP+</text><rect fill="#E2E2F0" height="36.1172" rx="2.5" ry="2.5" style="stroke:#181818;stroke-width:0.5;" width="49" x="507" y="5"/><text fill="#000000" font-family="sans-serif" font-size="19" lengthAdjust="spacing" textLength="35" x="514" y="29.6362">LPA</text><rect fill="#E2E2F0" height="36.1172" rx="2.5" ry="2.5" style="stroke:#181818;stroke-width:0.5;" width="49" x="507" y="716.8438"/><text fill="#000000" font-family="sans-serif" font-size="19" lengthAdjust="spacing" textLength="35" x="514" y="741.48">LPA</text><rect fill="#E2E2F0" height="36.1172" rx="2.5" ry="2.5" style="stroke:#181818;stroke-width:0.5;" width="72" x="807.5" y="5"/><text fill="#000000" font-family="sans-serif" font-size="19" lengthAdjust="spacing" textLength="58" x="814.5" y="29.6362">eUICC</text><rect fill="#E2E2F0" height="36.1172" rx="2.5" ry="2.5" style="stroke:#181818;stroke-width:0.5;" width="72" x="807.5" y="716.8438"/><text fill="#000000" font-family="sans-serif" font-size="19" lengthAdjust="spacing" textLength="58" x="814.5" y="741.48">eUICC</text><rect fill="#E2E2F0" height="36.1172" rx="2.5" ry="2.5" style="stroke:#181818;stroke-width:0.5;" width="101" x="889.5" y="5"/><text fill="#000000" font-family="sans-serif" font-size="19" lengthAdjust="spacing" textLength="87" x="896.5" y="29.6362">End User</text><rect fill="#E2E2F0" height="36.1172" rx="2.5" ry="2.5" style="stroke:#181818;stroke-width:0.5;" width="101" x="889.5" y="716.8438"/><text fill="#000000" font-family="sans-serif" font-size="19" lengthAdjust="spacing" textLength="87" x="896.5" y="741.48">End User</text><polygon fill="#181818" points="239.5,69.25,249.5,73.25,239.5,77.25,243.5,73.25" style="stroke:#181818;stroke-width:1.0;"/><line style="stroke:#181818;stroke-width:1.0;" x1="35.5" x2="245.5" y1="73.25" y2="73.25"/><text fill="#000000" font-family="sans-serif" font-size="13" lengthAdjust="spacing" textLength="155" x="42.5" y="68.1841">Order and Create Profile</text><rect fill="#FEFFDD" height="30" style="stroke:#181818;stroke-width:0.5;" width="139" x="182" y="86.25"/><text fill="#000000" font-family="sans-serif" font-size="19" lengthAdjust="spacing" textLength="131" x="186" y="107.8862">Generate PPP</text><polygon fill="#181818" points="46.5,138.5,36.5,142.5,46.5,146.5,42.5,142.5" style="stroke:#181818;stroke-width:1.0;"/><line style="stroke:#181818;stroke-width:1.0;stroke-dasharray:2.0,2.0;" x1="40.5" x2="250.5" y1="142.5" y2="142.5"/><text fill="#000000" font-family="sans-serif" font-size="13" lengthAdjust="spacing" textLength="74" x="52.5" y="137.4341">Matching ID</text><polygon fill="#181818" points="928,167.6328,938,171.6328,928,175.6328,932,171.6328" style="stroke:#181818;stroke-width:1.0;"/><line style="stroke:#181818;stroke-width:1.0;" x1="35.5" x2="934" y1="171.6328" y2="171.6328"/><text fill="#000000" font-family="sans-serif" font-size="13" lengthAdjust="spacing" textLength="101" x="42.5" y="166.5669">Activation Code</text><polygon fill="#181818" points="542.5,196.7656,532.5,200.7656,542.5,204.7656,538.5,200.7656" style="stroke:#181818;stroke-width:1.0;"/><line style="stroke:#181818;stroke-width:1.0;" x1="536.5" x2="939" y1="200.7656" y2="200.7656"/><text fill="#000000" font-family="sans-serif" font-size="13" lengthAdjust="spacing" textLength="136" x="548.5" y="195.6997">Scan Activation Code</text><polygon fill="#181818" points="262.5,225.8984,252.5,229.8984,262.5,233.8984,258.5,229.8984" style="stroke:#181818;stroke-width:1.0;"/><line style="stroke:#181818;stroke-width:1.0;" x1="256.5" x2="530.5" y1="229.8984" y2="229.8984"/><text fill="#000000" font-family="sans-serif" font-size="13" lengthAdjust="spacing" textLength="129" x="268.5" y="224.8325">Start HTTPS Session</text><polygon fill="#181818" points="831.5,255.0313,841.5,259.0313,831.5,263.0313,835.5,259.0313" style="stroke:#181818;stroke-width:1.0;"/><line style="stroke:#181818;stroke-width:1.0;stroke-dasharray:2.0,2.0;" x1="251.5" x2="837.5" y1="259.0313" y2="259.0313"/><text fill="#000000" font-family="sans-serif" font-size="13" lengthAdjust="spacing" textLength="291" x="258.5" y="253.9653">Authenticate Server (Server Info &amp; Signature)</text><polygon fill="#181818" points="262.5,284.1641,252.5,288.1641,262.5,292.1641,258.5,288.1641" style="stroke:#181818;stroke-width:1.0;"/><line style="stroke:#181818;stroke-width:1.0;" x1="256.5" x2="842.5" y1="288.1641" y2="288.1641"/><text fill="#000000" font-family="sans-serif" font-size="13" lengthAdjust="spacing" textLength="330" x="268.5" y="283.0981">Authenticate Client (eUICC Signature &amp; Certificates)</text><polygon fill="#181818" points="519.5,313.2969,529.5,317.2969,519.5,321.2969,523.5,317.2969" style="stroke:#181818;stroke-width:1.0;"/><line style="stroke:#181818;stroke-width:1.0;stroke-dasharray:2.0,2.0;" x1="251.5" x2="525.5" y1="317.2969" y2="317.2969"/><text fill="#000000" font-family="sans-serif" font-size="13" lengthAdjust="spacing" textLength="104" x="258.5" y="312.231">Profile Metadata</text><rect fill="#FEFFDD" height="30" style="stroke:#181818;stroke-width:0.5;" width="128" x="467" y="330.2969"/><text fill="#000000" font-family="sans-serif" font-size="19" lengthAdjust="spacing" textLength="120" x="471" y="351.9331">Check Policy</text><polygon fill="#181818" points="542.5,382.5469,532.5,386.5469,542.5,390.5469,538.5,386.5469" style="stroke:#181818;stroke-width:1.0;"/><line style="stroke:#181818;stroke-width:1.0;" x1="536.5" x2="939" y1="386.5469" y2="386.5469"/><text fill="#000000" font-family="sans-serif" font-size="13" lengthAdjust="spacing" textLength="165" x="548.5" y="381.481">Profile Download Consent</text><polygon fill="#181818" points="831.5,411.6797,841.5,415.6797,831.5,419.6797,835.5,415.6797" style="stroke:#181818;stroke-width:1.0;"/><line style="stroke:#181818;stroke-width:1.0;" x1="531.5" x2="837.5" y1="415.6797" y2="415.6797"/><text fill="#000000" font-family="sans-serif" font-size="13" lengthAdjust="spacing" textLength="213" x="538.5" y="410.6138">Prepare Download (Create ISD-P)</text><polygon fill="#181818" points="262.5,440.8125,252.5,444.8125,262.5,448.8125,258.5,444.8125" style="stroke:#181818;stroke-width:1.0;"/><polygon fill="#181818" points="831.5,440.8125,841.5,444.8125,831.5,448.8125,835.5,444.8125" style="stroke:#181818;stroke-width:1.0;"/><line style="stroke:#181818;stroke-width:1.0;" x1="256.5" x2="837.5" y1="444.8125" y2="444.8125"/><text fill="#000000" font-family="sans-serif" font-size="13" lengthAdjust="spacing" textLength="195" x="268.5" y="439.7466">ISD-P ECKA Key Establishment</text><polygon fill="#181818" points="262.5,469.9453,252.5,473.9453,262.5,477.9453,258.5,473.9453" style="stroke:#181818;stroke-width:1.0;"/><line style="stroke:#181818;stroke-width:1.0;" x1="256.5" x2="530.5" y1="473.9453" y2="473.9453"/><text fill="#000000" font-family="sans-serif" font-size="13" lengthAdjust="spacing" textLength="169" x="268.5" y="468.8794">Get Bound Profile Package</text><rect fill="#FEFFDD" height="30" style="stroke:#181818;stroke-width:0.5;" width="141" x="181" y="486.9453"/><text fill="#000000" font-family="sans-serif" font-size="19" lengthAdjust="spacing" textLength="133" x="185" y="508.5815">Generate BPP</text><polygon fill="#181818" points="519.5,539.1953,529.5,543.1953,519.5,547.1953,523.5,543.1953" style="stroke:#181818;stroke-width:1.0;"/><line style="stroke:#181818;stroke-width:1.0;stroke-dasharray:2.0,2.0;" x1="251.5" x2="525.5" y1="543.1953" y2="543.1953"/><text fill="#000000" font-family="sans-serif" font-size="13" lengthAdjust="spacing" textLength="142" x="258.5" y="538.1294">Bound Profile Package</text><polygon fill="#181818" points="831.5,568.3281,841.5,572.3281,831.5,576.3281,835.5,572.3281" style="stroke:#181818;stroke-width:1.0;"/><line style="stroke:#181818;stroke-width:1.0;" x1="531.5" x2="837.5" y1="572.3281" y2="572.3281"/><text fill="#000000" font-family="sans-serif" font-size="13" lengthAdjust="spacing" textLength="84" x="538.5" y="567.2622">Load BPP x N</text><rect fill="#FEFFDD" height="30" style="stroke:#181818;stroke-width:0.5;" width="137" x="775" y="585.3281"/><text fill="#000000" font-family="sans-serif" font-size="19" lengthAdjust="spacing" textLength="129" x="779" y="606.9644">Install Profile</text><polygon fill="#181818" points="262.5,637.5781,252.5,641.5781,262.5,645.5781,258.5,641.5781" style="stroke:#181818;stroke-width:1.0;"/><line style="stroke:#181818;stroke-width:1.0;stroke-dasharray:2.0,2.0;" x1="256.5" x2="842.5" y1="641.5781" y2="641.5781"/><text fill="#000000" font-family="sans-serif" font-size="13" lengthAdjust="spacing" textLength="157" x="268.5" y="636.5122">Profile Installation Result</text><polygon fill="#181818" points="542.5,666.7109,532.5,670.7109,542.5,674.7109,538.5,670.7109" style="stroke:#181818;stroke-width:1.0;"/><line style="stroke:#181818;stroke-width:1.0;" x1="536.5" x2="939" y1="670.7109" y2="670.7109"/><text fill="#000000" font-family="sans-serif" font-size="13" lengthAdjust="spacing" textLength="87" x="548.5" y="665.645">Enable Profile</text><polygon fill="#181818" points="831.5,695.8438,841.5,699.8438,831.5,703.8438,835.5,699.8438" style="stroke:#181818;stroke-width:1.0;"/><line style="stroke:#181818;stroke-width:1.0;" x1="531.5" x2="837.5" y1="699.8438" y2="699.8438"/><text fill="#000000" font-family="sans-serif" font-size="13" lengthAdjust="spacing" textLength="87" x="538.5" y="694.7778">Enable Profile</text><!--MD5=[0d1b3a5fdcc40c0b9098809812095634]
@startuml
skinparam maxMessageSize 500
skinparam ParticipantFontSize 20
skinparam ParticipantFontSize 19
skinparam NoteFontSize 19
skinparam NoteTextAlignment center

participant "End User" order 60
participant eUICC order 50
participant LPA order 40
participant "SM-DP+" order 20
participant MNO order 10

MNO -> "SM-DP+": Order and Create Profile\t\t
rnote over "SM-DP+"
Generate PPP
end rnote
MNO <- - "SM-DP+": Matching ID
MNO -> "End User": Activation Code
"End User" -> LPA : Scan Activation Code

LPA -> "SM-DP+" : Start HTTPS Session
eUICC <- - "SM-DP+": Authenticate Server (Server Info & Signature)
eUICC -> "SM-DP+": Authenticate Client (eUICC Signature & Certificates)
LPA <- - "SM-DP+": Profile Metadata

rnote over LPA: Check Policy
"End User" -> LPA: Profile Download Consent

LPA -> eUICC: Prepare Download (Create ISD-P) \t\t\t
"SM-DP+" <-> eUICC: ISD-P ECKA Key Establishment
LPA -> "SM-DP+": Get Bound Profile Package \t\t\t
rnote over "SM-DP+": Generate BPP
LPA <- - "SM-DP+": Bound Profile Package

LPA -> eUICC : Load BPP x N
rnote over eUICC: Install Profile
eUICC - -> "SM-DP+" : Profile Installation Result
"End User" -> LPA: Enable Profile
LPA -> eUICC: Enable Profile
@enduml

PlantUML version 1.2022.7beta2(Unknown compile time)
(GPL source distribution)
Java Runtime: Java(TM) SE Runtime Environment
JVM: Java HotSpot(TM) 64-Bit Server VM
Default Encoding: UTF-8
Language: en
Country: US
--></g></svg>