<?xml version="1.0" encoding="UTF-8" standalone="no"?><svg xmlns="http://www.w3.org/2000/svg" xmlns:xlink="http://www.w3.org/1999/xlink" contentStyleType="text/css" height="607px" preserveAspectRatio="none" style="width:625px;height:607px;background:#FFFFFF;" version="1.1" viewBox="0 0 625 607" width="625px" zoomAndPan="magnify"><defs/><g><line style="stroke:#181818;stroke-width:0.5;stroke-dasharray:5.0,5.0;" x1="28" x2="28" y1="36.2969" y2="572.6875"/><line style="stroke:#181818;stroke-width:0.5;stroke-dasharray:5.0,5.0;" x1="207" x2="207" y1="36.2969" y2="572.6875"/><line style="stroke:#181818;stroke-width:0.5;stroke-dasharray:5.0,5.0;" x1="370.5" x2="370.5" y1="36.2969" y2="572.6875"/><line style="stroke:#181818;stroke-width:0.5;stroke-dasharray:5.0,5.0;" x1="540.5" x2="540.5" y1="36.2969" y2="572.6875"/><rect fill="#E2E2F0" height="30.2969" rx="2.5" ry="2.5" style="stroke:#181818;stroke-width:0.5;" width="47" x="5" y="5"/><text fill="#000000" font-family="sans-serif" font-size="14" lengthAdjust="spacing" textLength="33" x="12" y="24.9951">MNO</text><rect fill="#E2E2F0" height="30.2969" rx="2.5" ry="2.5" style="stroke:#181818;stroke-width:0.5;" width="47" x="5" y="571.6875"/><text fill="#000000" font-family="sans-serif" font-size="14" lengthAdjust="spacing" textLength="33" x="12" y="591.6826">MNO</text><rect fill="#E2E2F0" height="30.2969" rx="2.5" ry="2.5" style="stroke:#181818;stroke-width:0.5;" width="61" x="177" y="5"/><text fill="#000000" font-family="sans-serif" font-size="14" lengthAdjust="spacing" textLength="47" x="184" y="24.9951">SM-DP</text><rect fill="#E2E2F0" height="30.2969" rx="2.5" ry="2.5" style="stroke:#181818;stroke-width:0.5;" width="61" x="177" y="571.6875"/><text fill="#000000" font-family="sans-serif" font-size="14" lengthAdjust="spacing" textLength="47" x="184" y="591.6826">SM-DP</text><rect fill="#E2E2F0" height="30.2969" rx="2.5" ry="2.5" style="stroke:#181818;stroke-width:0.5;" width="60" x="340.5" y="5"/><text fill="#000000" font-family="sans-serif" font-size="14" lengthAdjust="spacing" textLength="46" x="347.5" y="24.9951">SM-SR</text><rect fill="#E2E2F0" height="30.2969" rx="2.5" ry="2.5" style="stroke:#181818;stroke-width:0.5;" width="60" x="340.5" y="571.6875"/><text fill="#000000" font-family="sans-serif" font-size="14" lengthAdjust="spacing" textLength="46" x="347.5" y="591.6826">SM-SR</text><rect fill="#E2E2F0" height="30.2969" rx="2.5" ry="2.5" style="stroke:#181818;stroke-width:0.5;" width="56" x="512.5" y="5"/><text fill="#000000" font-family="sans-serif" font-size="14" lengthAdjust="spacing" textLength="42" x="519.5" y="24.9951">eUICC</text><rect fill="#E2E2F0" height="30.2969" rx="2.5" ry="2.5" style="stroke:#181818;stroke-width:0.5;" width="56" x="512.5" y="571.6875"/><text fill="#000000" font-family="sans-serif" font-size="14" lengthAdjust="spacing" textLength="42" x="519.5" y="591.6826">eUICC</text><polygon fill="#181818" points="195.5,63.4297,205.5,67.4297,195.5,71.4297,199.5,67.4297" style="stroke:#181818;stroke-width:1.0;"/><line style="stroke:#181818;stroke-width:1.0;" x1="28.5" x2="201.5" y1="67.4297" y2="67.4297"/><text fill="#000000" font-family="sans-serif" font-size="13" lengthAdjust="spacing" textLength="155" x="35.5" y="62.3638">Order and Create Profile</text><rect fill="#FEFFDD" height="23" style="stroke:#181818;stroke-width:0.5;" width="203" x="106" y="80.4297"/><text fill="#000000" font-family="sans-serif" font-size="13" lengthAdjust="spacing" textLength="195" x="110" y="96.4966">Generate &amp; Personalize Profile</text><polygon fill="#181818" points="218.5,125.6953,208.5,129.6953,218.5,133.6953,214.5,129.6953" style="stroke:#181818;stroke-width:1.0;"/><polygon fill="#181818" points="358.5,125.6953,368.5,129.6953,358.5,133.6953,362.5,129.6953" style="stroke:#181818;stroke-width:1.0;"/><line style="stroke:#181818;stroke-width:1.0;" x1="212.5" x2="364.5" y1="129.6953" y2="129.6953"/><text fill="#000000" font-family="sans-serif" font-size="13" lengthAdjust="spacing" textLength="139" x="224.5" y="124.6294">Mutual Authentication</text><polygon fill="#181818" points="358.5,154.8281,368.5,158.8281,358.5,162.8281,362.5,158.8281" style="stroke:#181818;stroke-width:1.0;"/><line style="stroke:#181818;stroke-width:1.0;" x1="207.5" x2="364.5" y1="158.8281" y2="158.8281"/><text fill="#000000" font-family="sans-serif" font-size="13" lengthAdjust="spacing" textLength="76" x="214.5" y="153.7622">EIS Request</text><polygon fill="#181818" points="358.5,183.9609,368.5,187.9609,358.5,191.9609,362.5,187.9609" style="stroke:#181818;stroke-width:1.0;"/><line style="stroke:#181818;stroke-width:1.0;" x1="207.5" x2="364.5" y1="187.9609" y2="187.9609"/><text fill="#000000" font-family="sans-serif" font-size="13" lengthAdjust="spacing" textLength="126" x="214.5" y="182.895">Installation Request</text><polygon fill="#181818" points="528.5,213.0938,538.5,217.0938,528.5,221.0938,532.5,217.0938" style="stroke:#181818;stroke-width:1.0;"/><line style="stroke:#181818;stroke-width:1.0;" x1="370.5" x2="534.5" y1="217.0938" y2="217.0938"/><text fill="#000000" font-family="sans-serif" font-size="13" lengthAdjust="spacing" textLength="146" x="377.5" y="212.0278">RSP Session Triggering</text><polygon fill="#181818" points="528.5,242.2266,538.5,246.2266,528.5,250.2266,532.5,246.2266" style="stroke:#181818;stroke-width:1.0;"/><line style="stroke:#181818;stroke-width:1.0;" x1="370.5" x2="534.5" y1="246.2266" y2="246.2266"/><text fill="#000000" font-family="sans-serif" font-size="13" lengthAdjust="spacing" textLength="92" x="377.5" y="241.1606">ISD-P Creation</text><rect fill="#FEFFDD" height="23" style="stroke:#181818;stroke-width:0.5;" width="133" x="474" y="259.2266"/><text fill="#000000" font-family="sans-serif" font-size="13" lengthAdjust="spacing" textLength="125" x="478" y="275.2935">ISD-R creates ISD-P</text><polygon fill="#181818" points="218.5,304.4922,208.5,308.4922,218.5,312.4922,214.5,308.4922" style="stroke:#181818;stroke-width:1.0;"/><polygon fill="#181818" points="528.5,304.4922,538.5,308.4922,528.5,312.4922,532.5,308.4922" style="stroke:#181818;stroke-width:1.0;"/><line style="stroke:#181818;stroke-width:1.0;" x1="212.5" x2="534.5" y1="308.4922" y2="308.4922"/><text fill="#000000" font-family="sans-serif" font-size="13" lengthAdjust="spacing" textLength="157" x="224.5" y="303.4263">ISD-P Key Establishment</text><rect fill="#FEFFDD" height="23" style="stroke:#181818;stroke-width:0.5;" width="220" x="97" y="321.4922"/><text fill="#000000" font-family="sans-serif" font-size="13" lengthAdjust="spacing" textLength="212" x="101" y="337.5591">Encrypt Profile with Session Keys</text><polygon fill="#181818" points="528.5,366.7578,538.5,370.7578,528.5,374.7578,532.5,370.7578" style="stroke:#181818;stroke-width:1.0;"/><line style="stroke:#181818;stroke-width:1.0;" x1="207.5" x2="534.5" y1="370.7578" y2="370.7578"/><text fill="#000000" font-family="sans-serif" font-size="13" lengthAdjust="spacing" textLength="209" x="214.5" y="365.6919">Profile Download and Installation</text><rect fill="#FEFFDD" height="23" style="stroke:#181818;stroke-width:0.5;" width="89" x="496" y="383.7578"/><text fill="#000000" font-family="sans-serif" font-size="13" lengthAdjust="spacing" textLength="81" x="500" y="399.8247">Install Profile</text><polygon fill="#181818" points="39.5,429.0234,29.5,433.0234,39.5,437.0234,35.5,433.0234" style="stroke:#181818;stroke-width:1.0;"/><line style="stroke:#181818;stroke-width:1.0;stroke-dasharray:2.0,2.0;" x1="33.5" x2="539.5" y1="433.0234" y2="433.0234"/><text fill="#000000" font-family="sans-serif" font-size="13" lengthAdjust="spacing" textLength="157" x="45.5" y="427.9575">Profile Installation Result</text><polygon fill="#181818" points="528.5,458.1563,538.5,462.1563,528.5,466.1563,532.5,462.1563" style="stroke:#181818;stroke-width:1.0;"/><line style="stroke:#181818;stroke-width:1.0;" x1="207.5" x2="534.5" y1="462.1563" y2="462.1563"/><text fill="#000000" font-family="sans-serif" font-size="13" lengthAdjust="spacing" textLength="155" x="214.5" y="457.0903">Profile Enabling Request</text><rect fill="#FEFFDD" height="53" style="stroke:#181818;stroke-width:0.5;" width="158" x="461" y="475.1563"/><text fill="#000000" font-family="sans-serif" font-size="13" lengthAdjust="spacing" textLength="80" x="465" y="491.2231">Check Policy</text><text fill="#000000" font-family="sans-serif" font-size="13" lengthAdjust="spacing" textLength="150" x="465" y="506.356">Disables Current Profile</text><text fill="#000000" font-family="sans-serif" font-size="13" lengthAdjust="spacing" textLength="126" x="465" y="521.4888">Enables New Profile</text><polygon fill="#181818" points="218.5,550.6875,208.5,554.6875,218.5,558.6875,214.5,554.6875" style="stroke:#181818;stroke-width:1.0;"/><line style="stroke:#181818;stroke-width:1.0;stroke-dasharray:2.0,2.0;" x1="212.5" x2="539.5" y1="554.6875" y2="554.6875"/><text fill="#000000" font-family="sans-serif" font-size="13" lengthAdjust="spacing" textLength="142" x="224.5" y="549.6216">Profile Enabling Result</text><!--MD5=[e52ee1afcd4db3566e0b8616a29b00e9]
@startuml
participant MNO
participant "SM-DP" 
participant "SM-SR"
participant eUICC

MNO -> "SM-DP": Order and Create Profile
rnote over "SM-DP": Generate & Personalize Profile
"SM-DP" <-> "SM-SR": Mutual Authentication
"SM-DP" -> "SM-SR": EIS Request
"SM-DP" -> "SM-SR": Installation Request
"SM-SR" -> eUICC: RSP Session Triggering
"SM-SR" -> eUICC: ISD-P Creation
rnote over eUICC: ISD-R creates ISD-P
"SM-DP" <-> eUICC: ISD-P Key Establishment
rnote over "SM-DP": Encrypt Profile with Session Keys
"SM-DP" -> eUICC: Profile Download and Installation
rnote over eUICC: Install Profile
MNO <- - eUICC: Profile Installation Result

"SM-DP" -> eUICC: Profile Enabling Request
rnote over eUICC
Check Policy
Disables Current Profile
Enables New Profile
end rnote
"SM-DP" <- - eUICC: Profile Enabling Result
@enduml

PlantUML version 1.2022.7beta2(Unknown compile time)
(GPL source distribution)
Java Runtime: Java(TM) SE Runtime Environment
JVM: Java HotSpot(TM) 64-Bit Server VM
Default Encoding: UTF-8
Language: en
Country: US
--></g></svg>